# 3ds Max Wavefront OBJ Exporter v0.97b - (c)2007 guruware
# File Created: 27.06.2014 20:54:07

mtllib Stone_wall_001_tile_Lpoly.mtl

#
# object Stone_wall_001_tile_Lpoly
#

v  0.0000 47.2441 -103.2741
v  0.0000 47.2441 -56.0300
v  0.0000 -0.0000 -56.0300
v  0.0000 -0.0000 -103.2741
# 4 vertices

vn 1.0000 0.0000 -0.0000
# 1 vertex normals

vt 0.0000 0.0000 0.0000
vt 1.0000 0.0000 0.0000
vt 1.0000 1.0000 0.0000
vt 0.0000 1.0000 0.0000
# 4 texture coords

g Stone_wall_001_tile_Lpoly
usemtl wire_225143087
s 16
f 1/1/1 2/2/1 3/3/1 4/4/1 
# 1 polygons

